# xmcd
#
# Track frame offsets:
#	150
#	22660
#	48647
#	68382
#	87717
#	104904
#	128407
#	151365
#	171697
#	193872
#	213240
#	236202
#	258180
#
# Disc length: 3736 seconds
#
# Revision: 1
# Processed by: cddbd v1.5.1PL0 Copyright (c) Steve Scherf et al.
# Submitted via: CDex 1.50Beta5
#
DISCID=b70e960d
DTITLE=Ring - TEEN’S RING
DYEAR=1999
DGENRE=Pop
TTITLE0=MY TODAY,MY TOMORROW
TTITLE1=walk in the park,a
TTITLE2=あの日、見えた空
TTITLE3=Process
TTITLE4=minamo
TTITLE5=DIARY
TTITLE6=ONE,TWO STEP
TTITLE7=I’m proud
TTITLE8=PRIVATE PARADISE
TTITLE9=Process
TTITLE10=ONE,TWO STEP
TTITLE11=PRIVATE PARADISE
TTITLE12=MY TODAY,MY TOMORROW
EXTD=
EXTT0=
EXTT1=
EXTT2=
EXTT3=
EXTT4=
EXTT5=
EXTT6=
EXTT7=
EXTT8=
EXTT9=
EXTT10=
EXTT11=
EXTT12=
PLAYORDER=
